<svg x="0" y="0" width="700" height="350" viewBox="0 0 700 350" xmlns="http://www.w3.org/2000/svg" xmlns:xlink="http://www.w3.org/1999/xlink" xmlns:fi="http://pattern.flaticon.com/"><rect x="0px" y="0px" width="100%" height="100%" opacity="0" fill="#ffffff"/><defs><path d="m416 408h-49.03c45.009-80.411 22.803-184.83-55.575-239.307l1.876-1.876c8.225-8.224 10.599-19.887 7.458-30.085l26.484-26.484 17.182 17.182c5.857 5.858 15.355 5.858 21.213 0s5.858-15.355 0-21.213l-101.825-101.824c-5.856-5.858-15.354-5.858-21.213 0-5.858 5.858-5.858 15.355 0 21.213l18.174 18.174-26.484 26.485c-10.229-3.151-21.881-.746-30.084 7.457l-92.787 92.787c-4.673-4.673-8.806-8.806-15.949-15.949-5.857-5.858-15.355-5.858-21.213 0s-5.858 15.355 0 21.213l5.161 5.161c-35.114 51.916 1.786 123.195 65.445 123.195 15.466 0 30.924-4.517 44.232-13.518l5.161 5.161c5.857 5.857 15.355 5.858 21.213 0s5.858-15.355 0-21.213l-14.745-14.745c-.308-.308-2.677 2.256 21.96-22.381 32.239 14.039 53.346 45.775 53.346 81.567 0 49.075-39.925 89-89 89h-113c-16.542 0-30 13.458-30 30v42c0 16.542 13.458 30 30 30h322c16.542 0 30-13.458 30-30v-42c0-16.542-13.458-30-30-30zm-114.043-294.923c-14.749-14.749-9.304-9.304-24.042-24.042l24.042-24.042 24.042 24.042zm-171.772 146.738c-15.407-15.407-18.39-38.606-8.946-57.03l65.977 65.977c-18.425 9.44-41.625 6.459-57.031-8.947zm22.417-68.093c99.87-99.87 92.398-93.176 93.491-92.082 47.044 47.044 45.257 45.156 45.257 45.257 1.098 1.098 8.132-6.718-92.079 93.494zm112.434 23.331 24.74-24.74c73.686 47.46 92.429 147.023 41.691 217.687h-45.567c61.509-54.591 50.446-153.294-20.864-192.947zm150.964 264.947h-322v-42h322c.019 42.705.1 42 0 42z" transform="matrix(0.08999703079462051 0.04965353384613991 -0.04965353384613991 0.08999703079462051 -7.121692180633545 131.0911865234375)" id="L1_0"/><g transform="matrix(0.048192624002695084 0.0835338830947876 -0.0835338830947876 0.048192624002695084 353.88934326171875 -25.195098876953125)" id="L1_1"><path d="m474.589 284.997c41.765-9.655 40.185-69.634-2.01-77.08-8.082-1.426-10.514-11.741-4-16.66 34.225-25.781 8.407-79.959-33.18-69.59-7.916 1.964-14.412-6.409-10.43-13.6 20.792-37.501-24.854-76.447-58.62-50.08-6.473 5.048-15.77-.027-15.06-8.18 3.745-42.687-53.794-59.745-73.92-21.9-3.835 7.197-14.406 6.42-17.08-1.35-13.951-40.516-73.452-32.701-76.44 10.05-.578 8.178-10.563 11.707-16.15 5.72-29.235-31.354-80.393.006-65.75 40.28 2.773 7.615-4.822 15.019-12.43 11.79-39.443-16.744-73.447 32.694-43.67 63.54 5.66 5.867 1.641 15.686-6.56 15.82-42.853.758-53.8 59.763-14.06 75.81 7.56 3.057 7.884 13.653.44 17.13-38.848 18.107-24.826 76.464 17.99 74.97 8.181-.281 12.748 9.272 7.38 15.47-28.127 32.317 8.406 79.959 46.92 61.17 7.37-3.589 15.429 3.295 13.03 11.13-12.539 41.009 40.202 69.608 67.75 36.8 5.27-6.277 15.438-3.256 16.43 4.86 5.222 42.603 65.072 47.224 76.86 6.06 2.263-7.853 12.764-9.259 16.99-2.23 22.077 36.75 78.631 16.707 72.68-25.73-1.139-8.089 7.893-13.65 14.61-8.95 35.097 24.579 78.648-16.72 55.93-53.06-4.314-6.928 1.642-15.68 9.71-14.12 42.054 8.202 65.037-47.27 29.51-71.229-6.798-4.587-4.832-15.009 3.13-16.841zm-19.91 41.71c5.71 3.85 4.29 9.2 3.41 11.32s-3.65 6.9-10.41 5.59c-33.785-6.575-59.097 30.309-40.88 59.46 3.65 5.84.17 10.15-1.49 11.73-1.67 1.57-6.15 4.82-11.79.87-28.193-19.757-66.304 3.669-61.53 37.69.96 6.82-3.97 9.34-6.13 10.11-2.17.76-7.58 1.91-11.13-4-17.72-29.51-62.064-23.635-71.53 9.41-1.9 6.62-7.43 6.92-9.72 6.74-2.28-.18-7.7-1.34-8.53-8.18-4.195-34.14-47.046-46.854-69.19-20.5-4.42 5.28-9.59 3.3-11.61 2.2-2.01-1.09-6.49-4.35-4.47-10.94 10.063-32.914-23.966-61.94-54.86-46.86-6.2 3.01-10.11-.9-11.51-2.72-1.39-1.82-4.15-6.61.36-11.81 22.591-25.988 3.314-66.298-31.05-65.13-6.88.26-8.87-4.92-9.41-7.16-.53-2.23-1.1-7.73 5.14-10.64 31.196-14.538 29.983-59.255-1.88-72.13-6.39-2.58-6.1-8.11-5.69-10.37.42-2.25 2.14-7.51 9.03-7.63 34.416-.607 51.489-41.926 27.62-66.66-4.79-4.96-2.28-9.89-.98-11.78s5.01-6 11.35-3.31c31.683 13.461 64.082-17.358 52.35-49.66-2.36-6.47 1.94-9.96 3.89-11.16 1.96-1.2 7.02-3.44 11.71 1.6 23.476 25.186 65.622 10.211 68.02-24.08.49-6.87 5.83-8.31 8.1-8.61 2.28-.29 7.81-.29 10.05 6.22 11.216 32.587 55.814 35.989 71.94 5.68 3.23-6.08 8.7-5.23 10.9-4.57 2.2.65 7.25 2.91 6.65 9.77-3.007 34.292 36.323 55.599 63.41 34.43 5.43-4.23 10.07-1.23 11.81.26 1.75 1.49 5.44 5.61 2.1 11.64-16.685 30.101 10.569 65.544 43.92 57.25 6.68-1.67 9.7 2.97 10.69 5.04s2.69 7.33-2.81 11.48c-27.493 20.7-17.009 64.198 16.84 70.16 6.78 1.2 7.65 6.67 7.71 8.96s-.53 7.79-7.24 9.34c-33.542 7.748-41.638 51.72-13.16 70.95z"/><path d="m179.149 157.347c-34.738 0-63 28.262-63 63s28.262 63 63 63 63-28.262 63-63-28.262-63-63-63zm0 96c-18.196 0-33-14.804-33-33s14.804-33 33-33 33 14.804 33 33-14.804 33-33 33z"/><path d="m331.149 125.347c-25.916 0-47 21.084-47 47s21.084 47 47 47 47-21.084 47-47-21.084-47-47-47zm0 64c-9.374 0-17-7.626-17-17s7.626-17 17-17 17 7.626 17 17-7.626 17-17 17z"/><path d="m315.149 277.347c-25.916 0-47 21.084-47 47s21.084 47 47 47 47-21.084 47-47-21.084-47-47-47zm0 64c-9.374 0-17-7.626-17-17s7.626-17 17-17 17 7.626 17 17-7.626 17-17 17z"/><circle cx="191" cy="360" r="19"/></g><g transform="matrix(0.09671420603990555 0 0 0.09671420603990555 149.2411651611328 150.2411651611328)" id="L1_2"><path d="m256 0c-140.755 0-256 115.263-256 256 0 140.755 115.263 256 256 256 140.755 0 256-115.263 256-256 0-140.755-115.263-256-256-256zm0 482c-124.617 0-226-101.383-226-226s101.383-226 226-226 226 101.383 226 226-101.383 226-226 226z"/><path d="m256 60c-107.653 0-196 88.367-196 196 0 107.653 88.368 196 196 196 107.653 0 196-88.367 196-196 0-107.653-88.368-196-196-196zm0 362c-91.533 0-166-74.467-166-166s74.467-166 166-166 166 74.467 166 166-74.467 166-166 166z"/><path d="m356.602 281.611 12.413-12.413-21.213-21.214-12.414 12.414c-1.423-.682-2.889-1.285-4.389-1.817v-17.581h-30v17.58c-1.5.532-2.966 1.135-4.389 1.817l-12.414-12.414-21.213 21.214 12.413 12.413c-.682 1.422-1.285 2.889-1.818 4.389h-17.578v30h17.58c.532 1.5 1.135 2.967 1.818 4.389l-12.413 12.413 21.213 21.214 12.414-12.414c1.423.682 2.889 1.285 4.389 1.817v17.582h30v-17.58c1.5-.532 2.966-1.135 4.389-1.817l12.414 12.414 21.213-21.214-12.413-12.413c.682-1.422 1.285-2.889 1.818-4.389h17.578v-30h-17.58c-.532-1.501-1.136-2.968-1.818-4.39zm-25.602 19.389c0 8.271-6.729 15-15 15s-15-6.729-15-15 6.729-15 15-15 15 6.729 15 15z"/><path d="m221.602 206.611 12.413-12.413-21.213-21.214-12.414 12.414c-1.423-.682-2.889-1.285-4.389-1.817v-17.581h-30v17.58c-1.5.532-2.966 1.135-4.389 1.817l-12.414-12.414-21.213 21.214 12.413 12.413c-.682 1.422-1.285 2.889-1.818 4.389h-17.578v30h17.58c.532 1.5 1.135 2.967 1.818 4.389l-12.413 12.413 21.213 21.214 12.414-12.414c1.423.682 2.889 1.285 4.389 1.817v17.582h30v-17.58c1.5-.532 2.966-1.135 4.389-1.817l12.414 12.414 21.213-21.214-12.413-12.413c.682-1.422 1.285-2.889 1.818-4.389h17.578v-30h-17.58c-.532-1.501-1.136-2.968-1.818-4.39zm-25.602 19.389c0 8.271-6.729 15-15 15s-15-6.729-15-15 6.729-15 15-15 15 6.729 15 15z"/><path d="m181 316h30v30h-30z"/><path d="m301 196v15h30v-15c0-24.813-20.187-45-45-45h-15v30h15c8.271 0 15 6.729 15 15z"/></g><path d="m31 136c0 24.813 20.187 45 45 45 19.555 0 36.228-12.542 42.42-30h47.58v45c0 25.727 24.974 43.443 56.466 60-31.492 16.556-56.466 34.272-56.466 60v60c0 26.501 28.198 47.732 60.702 67.571-34.755 21.588-60.702 42.753-60.702 68.429h30c0-2.581 1.746-10.006 17.915-23.186 11.537-9.404 26.772-18.869 42.085-27.919 15.313 9.05 30.548 18.515 42.085 27.919 16.169 13.18 17.915 20.605 17.915 23.186h30c0-25.676-25.947-46.841-60.702-68.429 32.504-19.839 60.702-41.07 60.702-67.571v-45h47.58c6.192 17.458 22.865 30 42.42 30 24.813 0 45-20.187 45-45s-20.187-45-45-45c-19.555 0-36.228 12.542-42.42 30h-50.63c-7.569-18.008-28.44-31.87-53.416-45 31.492-16.557 56.466-34.273 56.466-60v-60c0-26.504-28.198-47.734-60.701-67.572 34.755-21.588 60.701-42.752 60.701-68.428h-30c0 2.581-1.746 10.006-17.915 23.186-11.537 9.404-26.772 18.869-42.085 27.919-15.313-9.05-30.548-18.515-42.085-27.919-16.169-13.18-17.915-20.605-17.915-23.186h-30c0 25.676 25.946 46.84 60.701 68.428-26.135 15.951-49.481 32.803-57.628 52.572h-50.653c-6.192-17.458-22.865-30-42.42-30-24.813 0-45 20.187-45 45zm285 15v30h-120v-30zm0 180v30h-120v-30zm-17.789 67.583c-11.58 9.233-27.298 18.774-42.211 27.537-14.913-8.763-30.631-18.303-42.211-27.537-3.501-2.792-6.323-5.313-8.603-7.594h101.627c-2.279 2.282-5.101 4.803-8.602 7.594zm137.789-97.583c8.271 0 15 6.729 15 15s-6.729 15-15 15-15-6.729-15-15 6.729-15 15-15zm-130.883 0h-98.233c1.753-1.438 3.78-2.97 6.124-4.602 11.513-8.013 27.204-15.962 42.993-23.703 15.789 7.74 31.48 15.689 42.993 23.703 2.343 1.632 4.369 3.165 6.123 4.602zm-49.117-61.696c-15.789-7.74-31.479-15.689-42.993-23.704-2.344-1.631-4.369-3.164-6.123-4.611h98.231c-1.753 1.447-3.779 2.98-6.123 4.611-11.513 8.015-27.203 15.964-42.992 23.704zm-42.211-125.889c11.582-9.235 27.299-18.774 42.211-27.536 14.912 8.761 30.629 18.301 42.211 27.536 3.502 2.792 6.324 5.314 8.604 7.585h-101.63c2.28-2.271 5.102-4.792 8.604-7.585zm-137.789 7.585c8.271 0 15 6.729 15 15s-6.729 15-15 15-15-6.729-15-15 6.729-15 15-15z" transform="matrix(0.0762857049703598 -0.044010985642671585 0.044010985642671585 0.0762857049703598 143.20404052734375 -4.262330532073975)" id="L1_3"/></defs><g fi:class="KUsePattern"><pattern id="pattern_L1_0" width="350" height="350" patternUnits="userSpaceOnUse"><use xlink:href="#L1_0" x="-350" y="-350"/><use xlink:href="#L1_0" x="0" y="-350"/><use xlink:href="#L1_0" x="350" y="-350"/><use xlink:href="#L1_0" x="-350" y="0"/><use xlink:href="#L1_0" x="0" y="0"/><use xlink:href="#L1_0" x="350" y="0"/><use xlink:href="#L1_0" x="-350" y="350"/><use xlink:href="#L1_0" x="0" y="350"/><use xlink:href="#L1_0" x="350" y="350"/></pattern><rect x="0" y="0" width="100%" height="100%" fill="url(#pattern_L1_0)"/></g><g fi:class="KUsePattern"><pattern id="pattern_L1_1" width="350" height="350" patternUnits="userSpaceOnUse"><use xlink:href="#L1_1" x="-350" y="-350"/><use xlink:href="#L1_1" x="0" y="-350"/><use xlink:href="#L1_1" x="350" y="-350"/><use xlink:href="#L1_1" x="-350" y="0"/><use xlink:href="#L1_1" x="0" y="0"/><use xlink:href="#L1_1" x="350" y="0"/><use xlink:href="#L1_1" x="-350" y="350"/><use xlink:href="#L1_1" x="0" y="350"/><use xlink:href="#L1_1" x="350" y="350"/></pattern><rect x="0" y="0" width="100%" height="100%" fill="url(#pattern_L1_1)"/></g><g fi:class="KUsePattern"><pattern id="pattern_L1_2" width="350" height="350" patternUnits="userSpaceOnUse"><use xlink:href="#L1_2" x="-350" y="-350"/><use xlink:href="#L1_2" x="0" y="-350"/><use xlink:href="#L1_2" x="350" y="-350"/><use xlink:href="#L1_2" x="-350" y="0"/><use xlink:href="#L1_2" x="0" y="0"/><use xlink:href="#L1_2" x="350" y="0"/><use xlink:href="#L1_2" x="-350" y="350"/><use xlink:href="#L1_2" x="0" y="350"/><use xlink:href="#L1_2" x="350" y="350"/></pattern><rect x="0" y="0" width="100%" height="100%" fill="url(#pattern_L1_2)"/></g><g fi:class="KUsePattern"><pattern id="pattern_L1_3" width="350" height="350" patternUnits="userSpaceOnUse"><use xlink:href="#L1_3" x="-350" y="-350"/><use xlink:href="#L1_3" x="0" y="-350"/><use xlink:href="#L1_3" x="350" y="-350"/><use xlink:href="#L1_3" x="-350" y="0"/><use xlink:href="#L1_3" x="0" y="0"/><use xlink:href="#L1_3" x="350" y="0"/><use xlink:href="#L1_3" x="-350" y="350"/><use xlink:href="#L1_3" x="0" y="350"/><use xlink:href="#L1_3" x="350" y="350"/></pattern><rect x="0" y="0" width="100%" height="100%" fill="url(#pattern_L1_3)"/></g></svg>